Coordinates
version=1
nRows=25
nColumns=50
inDegrees=no

Units are S.I. units (second, meters, Newtons, ...)
If the header above contains a line with 'inDegrees', this indicates whether rotational values are in degrees (yes) or radians (no).

endheader
time	pelvis_tilt	pelvis_list	pelvis_rotation	pelvis_tx	pelvis_ty	pelvis_tz	hip_flexion_r	hip_adduction_r	hip_rotation_r	knee_angle_r	ankle_angle_r	subtalar_angle_r	mtp_angle_r	hip_flexion_l	hip_adduction_l	hip_rotation_l	knee_angle_l	ankle_angle_l	subtalar_angle_l	mtp_angle_l	lumbar_bending	lumbar_extension	lumbar_twist	thorax_bending	thorax_extension	thorax_twist	head_bending	head_extension	head_twist	scapula_abduction_r	scapula_elevation_r	scapula_upward_rot_r	shoulder_r_x	shoulder_r_y	shoulder_r_z	elbow_flexion_r	pro_sup_r	wrist_flexion_r	wrist_deviation_r	scapula_abduction_l	scapula_elevation_l	scapula_upward_rot_l	shoulder_l_x	shoulder_l_y	shoulder_l_z	elbow_flexion_l	pro_sup_l	wrist_flexion_l	wrist_deviation_l
0.295834	-0.161042	0.0335128	-1.93756	0.299862	0.990684	3.76478	0.252376	0.27998	0.69517	0.648903	0.112074	0.364765	0.0290741	0.292493	-0.54747	-0.545464	0.597614	0.525802	0.353653	0.534497	-0.0372422	-0.43079	-0.0970717	-0.0786334	0.344606	0.145464	0.124777	-0.174913	0.0344732	-1.12928	-0.202289	0.999154	0.549067	-0.00611886	-1.05415	0.941882	0.456476	0.278212	-0.291017	-1.50281	-0.200344	0.276832	0.383987	-0.535483	-0.734236	0.584097	-0.0354086	0.257953	-0.117291
0.304051	-0.155706	0.0304301	-1.9041	0.295921	0.996005	3.77361	0.237241	0.277083	0.69909	0.618885	0.0917907	0.363291	0.0293165	0.277821	-0.529307	-0.548624	0.586064	0.525278	0.353071	0.534904	-0.0373312	-0.41739	-0.103837	-0.0688904	0.344101	0.143709	0.116964	-0.208983	0.0290427	-1.11751	-0.201844	0.998735	0.57164	-0.0246728	-1.01675	0.838378	0.463593	0.274282	-0.300607	-1.50332	-0.20061	0.272923	0.365459	-0.541109	-0.728335	0.5673	-0.0372039	0.26473	-0.113972
0.312269	-0.150627	0.0284923	-1.87349	0.29229	1.00016	3.78127	0.224974	0.273636	0.701716	0.594101	0.0741211	0.361461	0.0293352	0.266565	-0.513479	-0.549034	0.577792	0.524821	0.352478	0.53453	-0.035747	-0.405005	-0.11025	-0.0625952	0.344405	0.141167	0.111358	-0.239031	0.02409	-1.10511	-0.201457	0.998474	0.587453	-0.0478687	-0.976707	0.738067	0.469039	0.266648	-0.310431	-1.50344	-0.20076	0.270328	0.351376	-0.545034	-0.721579	0.552806	-0.037751	0.271174	-0.110481
0.320486	-0.145993	0.0278979	-1.84623	0.289073	1.00329	3.78801	0.215352	0.269881	0.703307	0.574183	0.0591126	0.359488	0.0291533	0.257611	-0.499916	-0.547703	0.571761	0.524436	0.351926	0.533671	-0.0327132	-0.393592	-0.116182	-0.0594861	0.345395	0.138147	0.108004	-0.264174	0.01966	-1.09201	-0.201138	0.998348	0.597693	-0.0740921	-0.936346	0.644039	0.472787	0.256432	-0.320452	-1.50317	-0.200821	0.268923	0.341091	-0.547687	-0.714573	0.540691	-0.0372012	0.27715	-0.107131
0.328704	-0.141907	0.0286908	-1.82254	0.286346	1.00554	3.79405	0.208063	0.265994	0.704103	0.558632	0.0466741	0.357529	0.0287936	0.249826	-0.488356	-0.545622	0.566883	0.524123	0.351454	0.532576	-0.028479	-0.383065	-0.121568	-0.0593019	0.346866	0.13487	0.106812	-0.284119	0.0157425	-1.07813	-0.20089	0.998342	0.603654	-0.102002	-0.897368	0.557999	0.474709	0.244483	-0.330595	-1.50251	-0.200817	0.268611	0.333996	-0.54946	-0.707734	0.530919	-0.0357697	0.282582	-0.104126
0.336921	-0.1384	0.030779	-1.8025	0.284155	1.00707	3.79961	0.202745	0.262088	0.70432	0.546897	0.0366533	0.355693	0.0282777	0.242163	-0.478422	-0.543725	0.562137	0.523876	0.351087	0.531447	-0.0233113	-0.373369	-0.126384	-0.0617518	0.348618	0.131489	0.107621	-0.298999	0.0122946	-1.0634	-0.20071	0.998447	0.606596	-0.130514	-0.860892	0.480559	0.47466	0.231419	-0.340777	-1.50145	-0.200768	0.26931	0.329545	-0.550664	-0.70134	0.523392	-0.033682	0.287431	-0.101596
0.345139	-0.135464	0.0340009	-1.78597	0.282508	1.00802	3.80489	0.199044	0.258252	0.704148	0.538421	0.0288651	0.354051	0.0276223	0.233794	-0.46971	-0.542773	0.556677	0.523691	0.350839	0.530445	-0.0174527	-0.364461	-0.130628	-0.0665142	0.350486	0.128092	0.110222	-0.309228	0.00925432	-1.04779	-0.200594	0.998665	0.607657	-0.158749	-0.827531	0.411583	0.472537	0.217687	-0.35092	-1.49996	-0.200691	0.270956	0.327248	-0.551526	-0.695574	0.517985	-0.0311269	0.291689	-0.0996037
0.353357	-0.133067	0.03817	-1.77271	0.281378	1.00852	3.81009	0.196626	0.254556	0.703749	0.53266	0.0231039	0.352644	0.0268379	0.224182	-0.461842	-0.543284	0.549911	0.523557	0.350715	0.529697	-0.0111221	-0.356325	-0.134317	-0.0732414	0.352357	0.124731	0.114373	-0.315388	0.0065583	-1.03141	-0.200531	0.999001	0.607817	-0.185973	-0.797459	0.350434	0.468295	0.203598	-0.360968	-1.49801	-0.200599	0.273482	0.326673	-0.552193	-0.690532	0.51456	-0.0282451	0.29537	-0.0981695
0.361574	-0.131153	0.0431048	-1.76239	0.280708	1.00869	3.81536	0.195179	0.251066	0.703256	0.529096	0.0191444	0.351489	0.0259281	0.213117	-0.454503	-0.545503	0.541581	0.523467	0.350712	0.529296	-0.00452839	-0.348986	-0.137474	-0.0815559	0.354161	0.121451	0.11981	-0.318159	0.00415132	-1.01443	-0.20051	0.999469	0.607872	-0.211552	-0.770487	0.296181	0.461953	0.189361	-0.370875	-1.49555	-0.200502	0.27679	0.327461	-0.55273	-0.686199	0.512955	-0.0251357	0.298489	-0.097282
0.369792	-0.129645	0.0486571	-1.75463	0.280414	1.00859	3.82088	0.194413	0.247842	0.702778	0.527238	0.0167393	0.350588	0.0248898	0.200691	-0.447454	-0.549403	0.53176	0.523412	0.35082	0.529308	0.0021252	-0.342499	-0.140133	-0.0910553	0.355863	0.118304	0.126259	-0.318246	0.00199066	-0.997136	-0.200516	1.00009	0.608446	-0.234918	-0.746188	0.247802	0.453594	0.175123	-0.380596	-1.49257	-0.200407	0.280745	0.329308	-0.55314	-0.682481	0.512999	-0.0218642	0.301067	-0.0969101
0.378009	-0.128459	0.0547357	-1.74901	0.280393	1.00827	3.82682	0.194044	0.244945	0.7024	0.526621	0.0156302	0.349932	0.0237138	0.187245	-0.440557	-0.554736	0.520807	0.523384	0.351019	0.529775	0.00864954	-0.336921	-0.142323	-0.101329	0.357453	0.115356	0.133419	-0.316335	5.66939e-05	-0.9799	-0.200533	1.00087	0.610018	-0.255581	-0.724053	0.204393	0.443377	0.161006	-0.390067	-1.48907	-0.200318	0.285213	0.331925	-0.553398	-0.679286	0.514533	-0.0184781	0.303131	-0.0970077
0.386227	-0.127516	0.0613156	-1.74514	0.280525	1.00774	3.83333	0.193791	0.242424	0.702186	0.526819	0.0155616	0.349503	0.0223862	0.173322	-0.43379	-0.561077	0.509315	0.523377	0.351285	0.53071	0.0148797	-0.332293	-0.144065	-0.111969	0.358943	0.112691	0.140972	-0.31306	-0.00164619	-0.963124	-0.200541	1.00185	0.612925	-0.273153	-0.703635	0.165318	0.431538	0.147142	-0.399189	-1.48505	-0.200238	0.290066	0.335024	-0.553466	-0.676571	0.517415	-0.0150171	0.30472	-0.0975161
0.394445	-0.126752	0.0684256	-1.74263	0.280686	1.00699	3.84061	0.193392	0.24031	0.702181	0.52746	0.0162982	0.349283	0.0208888	0.15963	-0.427226	-0.567883	0.498074	0.523385	0.351582	0.5321	0.0206785	-0.32867	-0.145361	-0.122572	0.360354	0.110419	0.148596	-0.309007	-0.0031058	-0.947225	-0.200519	1.00302	0.617332	-0.287371	-0.684617	0.130277	0.418378	0.133671	-0.407813	-1.48058	-0.20017	0.295148	0.338325	-0.553295	-0.674321	0.5215	-0.0115275	0.305861	-0.0983687
0.402662	-0.12611	0.0761449	-1.74115	0.280755	1.00597	3.84885	0.192591	0.238614	0.70241	0.528212	0.0176155	0.349247	0.0192029	0.146982	-0.421024	-0.574532	0.487995	0.523402	0.351865	0.533899	0.0259333	-0.326091	-0.1462	-0.132762	0.361712	0.108664	0.155975	-0.304695	-0.00431796	-0.93257	-0.200443	1.00441	0.623233	-0.29814	-0.666892	0.0993379	0.404248	0.120743	-0.415783	-1.47575	-0.200113	0.300315	0.341546	-0.552843	-0.672598	0.52665	-0.00806214	0.306585	-0.0994898
0.41088	-0.125563	0.0846335	-1.74034	0.28062	1.00463	3.85825	0.191197	0.237366	0.70288	0.528799	0.0192738	0.349373	0.0173081	0.13639	-0.415435	-0.580248	0.480107	0.523425	0.352077	0.536022	0.0306043	-0.324525	-0.146564	-0.142204	0.363044	0.107532	0.162807	-0.300563	-0.00528745	-0.919458	-0.200286	1.00601	0.63045	-0.305514	-0.650578	0.0729688	0.389584	0.108561	-0.422954	-1.47068	-0.200068	0.305442	0.344415	-0.552062	-0.67153	0.53274	-0.00465798	0.30693	-0.100797
0.419097	-0.1251	0.0940522	-1.73989	0.280194	1.00289	3.86904	0.189043	0.23659	0.70358	0.52905	0.0210568	0.349636	0.0151951	0.128984	-0.410777	-0.584214	0.475557	0.523451	0.352148	0.538336	0.0346717	-0.323962	-0.146411	-0.150583	0.364365	0.107143	0.168831	-0.296991	-0.00601354	-0.908075	-0.20002	1.00778	0.638613	-0.309716	-0.635878	0.0518197	0.37485	0.0973201	-0.429262	-1.46556	-0.200032	0.31038	0.346699	-0.550903	-0.671244	0.539654	-0.00137777	0.306908	-0.102204
0.427315	-0.124739	0.104563	-1.73953	0.27941	1.00064	3.88145	0.185996	0.236322	0.704475	0.528921	0.0227671	0.350012	0.012874	0.125996	-0.407427	-0.585608	0.475563	0.523477	0.351996	0.540654	0.0381423	-0.324372	-0.14568	-0.157626	0.36568	0.107621	0.173793	-0.294311	-0.00648404	-0.898523	-0.199616	1.00967	0.647214	-0.311138	-0.623036	0.0366608	0.360529	0.0872306	-0.434702	-1.46058	-0.200006	0.314996	0.348196	-0.549342	-0.671902	0.547307	0.00169554	0.306528	-0.103621
0.435533	-0.124532	0.116318	-1.73903	0.278229	0.997805	3.89574	0.181957	0.236617	0.705508	0.52853	0.0242365	0.350471	0.0103831	0.12869	-0.405784	-0.58366	0.481354	0.523502	0.351524	0.54272	0.0410293	-0.325718	-0.144287	-0.163093	0.366972	0.109117	0.177447	-0.292816	-0.0066632	-0.890869	-0.199044	1.0116	0.655638	-0.310281	-0.61224	0.0282396	0.347102	0.0785149	-0.439304	-1.45597	-0.199987	0.319159	0.348745	-0.547387	-0.673668	0.555623	0.00445494	0.305796	-0.104953
0.44375	-0.124601	0.129512	-1.73814	0.276652	0.994263	3.91219	0.176939	0.237607	0.70659	0.528164	0.0253034	0.35098	0.00778079	0.138397	-0.406262	-0.577565	0.494111	0.523524	0.35062	0.5442	0.0434311	-0.327896	-0.14215	-0.166806	0.368199	0.111763	0.179548	-0.292736	-0.00649431	-0.88519	-0.198275	1.01343	0.663213	-0.307663	-0.603663	0.0273552	0.335154	0.0713937	-0.443105	-1.45196	-0.199975	0.322743	0.348244	-0.545071	-0.676675	0.564524	0.00680835	0.304731	-0.106095
0.451968	-0.125126	0.144356	-1.73651	0.274726	0.989916	3.93111	0.171081	0.239469	0.707601	0.528275	0.0258197	0.351502	0.00515342	0.156451	-0.409247	-0.566503	0.514897	0.523544	0.349163	0.544673	0.0455211	-0.330756	-0.139189	-0.168644	0.369285	0.11568	0.179874	-0.294235	-0.00589956	-0.881604	-0.197286	1.01497	0.669219	-0.303759	-0.597424	0.0348155	0.325354	0.0661078	-0.446127	-1.44878	-0.199968	0.325595	0.346677	-0.542438	-0.680972	0.57389	0.00867311	0.303346	-0.106939
0.460185	-0.12633	0.161029	-1.73382	0.272546	0.984675	3.9528	0.164634	0.242391	0.708381	0.529438	0.025648	0.351989	0.00262574	0.184062	-0.415041	-0.54973	0.544545	0.523561	0.347025	0.543625	0.0475162	-0.334121	-0.135325	-0.168548	0.370121	0.120971	0.178237	-0.297401	-0.00478894	-0.880299	-0.196061	1.01598	0.672907	-0.298977	-0.593603	0.0514177	0.31841	0.0629272	-0.448363	-1.44665	-0.199965	0.327532	0.34412	-0.539554	-0.686506	0.58357	0.00997432	0.301653	-0.107375
0.468403	-0.128429	0.179625	-1.72973	0.270248	0.978471	3.9776	0.157919	0.246529	0.708728	0.532304	0.0246604	0.352381	0.000365772	0.222134	-0.423776	-0.526712	0.583482	0.523575	0.344075	0.540445	0.0496233	-0.3378	-0.130496	-0.166536	0.370551	0.127727	0.1745	-0.302233	-0.00308446	-0.881543	-0.194597	1.01613	0.673542	-0.293648	-0.592264	0.0779058	0.314989	0.0621375	-0.449759	-1.44574	-0.199965	0.328347	0.340747	-0.536515	-0.693095	0.593377	0.0106431	0.299648	-0.107299
0.476621	-0.131603	0.200153	-1.72392	0.268004	0.971268	4.00584	0.151338	0.251998	0.70839	0.537564	0.0227169	0.352606	-0.00141345	0.271124	-0.435354	-0.497202	0.63156	0.523586	0.340195	0.53443	0.0520135	-0.341557	-0.124687	-0.162715	0.370375	0.135991	0.168608	-0.308611	-0.000750859	-0.885696	-0.192909	1.01505	0.670458	-0.287952	-0.593467	0.114905	0.315693	0.064071	-0.450208	-1.44619	-0.199966	0.327828	0.336845	-0.533436	-0.700367	0.603085	0.0106455	0.297319	-0.106621
0.484838	-0.135942	0.222514	-1.71617	0.26602	0.963073	4.03789	0.14535	0.258819	0.707071	0.545918	0.0196739	0.352578	-0.00244959	0.330815	-0.449364	-0.461414	0.687875	0.523594	0.335285	0.524803	0.0547347	-0.345119	-0.117964	-0.157277	0.369347	0.145753	0.160597	-0.316269	0.00219717	-0.893203	-0.191035	1.01226	0.663128	-0.281876	-0.597261	0.162821	0.320933	0.069097	-0.449541	-1.44804	-0.199969	0.325774	0.332826	-0.530464	-0.707688	0.612452	0.00998298	0.294638	-0.105283
0.493056	-0.141441	0.246532	-1.70636	0.264519	0.953953	4.07411	0.140492	0.266908	0.704425	0.558036	0.0153667	0.352192	-0.00243566	0.400165	-0.465077	-0.420124	0.750641	0.5236	0.329291	0.510735	0.0577149	-0.348149	-0.110493	-0.150521	0.367169	0.156931	0.150615	-0.324782	0.00568905	-0.904572	-0.189046	1.00724	0.651234	-0.275163	-0.603669	0.221731	0.330891	0.077617	-0.447527	-1.45126	-0.199973	0.322028	0.329225	-0.527769	-0.71409	0.621237	0.0087107	0.291567	-0.103262
